<svg
  aria-hidden="true"
  focusable="false"
  data-prefix="fab"
  data-icon="facebook" 
  class="svg-inline--fa fa-facebook fa-w-16"
  role="img"
  xmlns="http://www.w3.org/2000/svg"
  viewBox="0 0 512 512"
>
  <path
    fill="currentColor"
    d="M425.4 0H86.6C38.8 0 0 38.8 0 86.6v338.8C0 473.2 38.8 512 86.6 512h338.8c47.8 0 86.6-38.8 86.6-86.6V86.6C512 38.8 473.2 0 425.4 0zM152 437.1H114V198.7h38v238.4zM133 171c-15.9 0-28.7-12.8-28.7-28.7S117.1 113 133 113s28.7 12.8 28.7 28.7S148.9 171 133 171zM438 437.1h-38V298.3c0-34.6-.7-79.2-48.2-79.2-48.3 0-55.8 37.7-55.8 76.8V437.1h-38V198.7h38v41c14.2-23.2 39-47.7 95.3-47.7 69 0 121.2 45.3 121.2 142.7V437.1z"
  ></path>
</svg>
